<svg width="58" height="58" viewBox="0 0 58 58" fill="none" xmlns="http://www.w3.org/2000/svg">
<path d="M23.5205 14.6667V12.25C23.5205 8.24595 26.7663 5 30.7705 5C34.7747 5 38.0205 8.24595 38.0205 12.25V14.6667" stroke="#FFF4F7" stroke-width="4" stroke-linecap="round"/>
<path d="M23.9336 36.4167C24.9288 39.2326 27.6144 41.2501 30.7711 41.2501C33.9277 41.2501 36.6134 39.2326 37.6085 36.4167" stroke="#FFF4F7" stroke-width="4" stroke-linecap="round"/>
<path d="M50.6441 30.4372C49.2296 22.8943 48.5225 19.1229 45.8378 16.8948C43.1532 14.6667 39.3162 14.6667 31.6419 14.6667H29.899C22.2247 14.6667 18.3876 14.6667 15.7029 16.8948C13.0182 19.1229 12.3111 22.8943 10.8968 30.4372C8.90804 41.0437 7.91368 46.3471 10.8128 49.8401C13.7119 53.3334 19.1076 53.3334 29.899 53.3334H31.6419C42.4332 53.3334 47.8289 53.3334 50.728 49.8401C52.41 47.8135 52.7814 45.1776 52.4085 41.2501" stroke="#FFF4F7" stroke-width="4" stroke-linecap="round"/>
</svg>
