<svg width="51" height="40" viewBox="0 0 51 40" fill="none" xmlns="http://www.w3.org/2000/svg">
<path d="M50.8873 26.9543C50.8265 26.5311 50.7407 26.1166 50.6354 25.7115L50.7085 25.7021C50.7085 25.7021 46.4974 14.6226 45.6207 10.7105C44.8866 7.74979 42.7421 5.42733 40.0167 4.36259C39.9473 4.11595 39.8897 3.89363 39.8467 3.70383C39.2528 1.30417 36.911 -0.305054 34.3929 0.0487406C31.8752 0.402634 30.0753 2.59421 30.1759 5.06326C30.1961 5.38245 30.2223 5.79299 30.2521 6.25958C28.3752 8.03508 27.2699 10.5656 27.3802 13.2742C27.3849 13.3498 27.3898 13.427 27.3945 13.5074H23.6051C23.6098 13.427 23.6146 13.3498 23.6199 13.2742C23.7298 10.5655 22.6252 8.03508 20.7475 6.25958C20.7773 5.79309 20.8036 5.38245 20.8238 5.06326C20.9242 2.59421 19.1248 0.402634 16.6067 0.0487406C14.0889 -0.305153 11.7468 1.30417 11.1528 3.70383C11.11 3.89373 11.0524 4.11595 10.9829 4.36259C8.25759 5.42723 6.11309 7.74979 5.37887 10.7105C4.50221 14.6226 0.291118 25.7021 0.291118 25.7021L0.364132 25.7115C0.258944 26.1166 0.17318 26.5311 0.112817 26.9543C-0.76026 33.0705 3.52902 38.7319 9.69206 39.598C15.8551 40.4641 21.5595 36.2078 22.4322 30.0916C22.4926 29.6676 22.5258 29.2468 22.5382 28.8283L22.6112 28.8394C22.6112 28.8394 22.6306 28.54 22.6648 28.0222H28.3348C28.3689 28.54 28.3884 28.8394 28.3884 28.8394L28.4615 28.8283C28.4738 29.2468 28.5071 29.6676 28.5675 30.0916C29.4402 36.2078 35.1446 40.4641 41.3076 39.598C47.4715 38.732 51.7599 33.0705 50.8873 26.9543ZM18.7127 29.5691C18.1302 33.6458 14.3277 36.4844 10.2186 35.9068C6.10991 35.3291 3.25072 31.5542 3.83283 27.4776C4.41455 23.4001 8.21744 20.5622 12.3261 21.1398C16.4351 21.7176 19.2943 25.4908 18.7127 29.5691ZM40.7811 35.9068C36.672 36.4844 32.8695 33.6458 32.287 29.5691C31.7054 25.4908 34.5645 21.7176 38.6735 21.1398C42.7826 20.5622 46.5851 23.4 47.1669 27.4776C47.749 31.5543 44.8898 35.3292 40.7811 35.9068Z" fill="white"/>
</svg>
