<svg width="45" height="34" viewBox="0 0 45 34" fill="none" xmlns="http://www.w3.org/2000/svg">
<path d="M0 30.6C0 32.47 1.35 34 3 34H42C43.65 34 45 32.47 45 30.6V10.2H0V30.6ZM4.5 22.1H22.5C23.328 22.1 24 22.8616 24 23.8C24 24.7384 23.328 25.5 22.5 25.5H4.5C3.672 25.5 3 24.7384 3 23.8C3 22.8616 3.672 22.1 4.5 22.1ZM4.5 27.2H12C12.828 27.2 13.5 27.9616 13.5 28.9C13.5 29.8384 12.828 30.6 12 30.6H4.5C3.672 30.6 3 29.8384 3 28.9C3 27.9616 3.672 27.2 4.5 27.2ZM45 3.4V5.1H0V3.4C0 1.53 1.35 0 3 0H42C43.65 0 45 1.53 45 3.4Z" fill="white"/>
</svg>
