<svg width="24" height="26" viewBox="0 0 24 26" fill="none" xmlns="http://www.w3.org/2000/svg">
<path d="M1 1H3.3035C4.10675 1 4.50767 1 4.82783 1.17567C4.95983 1.24833 5.07939 1.34158 5.182 1.45192C5.42992 1.71967 5.52767 2.10925 5.72175 2.88842L5.97958 3.91833C6.12267 4.49067 6.19492 4.77683 6.30542 5.01767C6.4943 5.42863 6.77884 5.78841 7.13522 6.06691C7.4916 6.34541 7.90948 6.53454 8.35392 6.6185C8.61458 6.66667 8.90925 6.66667 9.5 6.66667" stroke="white" stroke-width="2" stroke-linecap="round"/>
<path d="M20.8333 19.4165H6.02916C5.82375 19.4165 5.72033 19.4165 5.641 19.408C5.44429 19.3861 5.25438 19.3231 5.08348 19.2233C4.91258 19.1235 4.7645 18.9889 4.64878 18.8284C4.53306 18.6678 4.45227 18.4848 4.41162 18.2911C4.37096 18.0974 4.37135 17.8973 4.41275 17.7038C4.44532 17.5783 4.48361 17.4545 4.52749 17.3326C4.60116 17.1144 4.63658 17.0053 4.67766 16.9076C4.87932 16.4246 5.21085 16.0068 5.63546 15.7008C6.06006 15.3947 6.56116 15.2122 7.08316 15.1736C7.18799 15.1665 7.30416 15.1665 7.53225 15.1665H15.1667" stroke="white" stroke-width="2" stroke-linecap="round" stroke-linejoin="round"/>
<path d="M15.9147 15.1665H10.8798C9.15715 15.1665 8.29582 15.1665 7.6314 14.7769C7.35128 14.6121 7.10161 14.4003 6.89332 14.1508C6.39749 13.5586 6.25582 12.7086 5.9739 11.01C5.68632 9.28875 5.54324 8.42742 5.88465 7.78992C6.02668 7.52387 6.22372 7.2911 6.46265 7.10709C7.03499 6.6665 7.90765 6.6665 9.65299 6.6665H19.0823C21.1365 6.6665 22.1636 6.6665 22.5801 7.338C22.9952 8.01092 22.5347 8.92892 21.6167 10.7663L20.9835 12.0343C20.2213 13.5586 19.8402 14.3208 19.156 14.7429C18.4703 15.1665 17.6189 15.1665 15.9147 15.1665Z" stroke="white" stroke-width="2" stroke-linecap="round"/>
<path d="M19.4167 25.0833C20.1991 25.0833 20.8333 24.4491 20.8333 23.6667C20.8333 22.8843 20.1991 22.25 19.4167 22.25C18.6343 22.25 18 22.8843 18 23.6667C18 24.4491 18.6343 25.0833 19.4167 25.0833Z" fill="white"/>
<path d="M8.08335 25.0833C8.86576 25.0833 9.50002 24.4491 9.50002 23.6667C9.50002 22.8843 8.86576 22.25 8.08335 22.25C7.30095 22.25 6.66669 22.8843 6.66669 23.6667C6.66669 24.4491 7.30095 25.0833 8.08335 25.0833Z" fill="white"/>
</svg>
