<svg width="60" height="32" viewBox="0 0 60 32" fill="none" xmlns="http://www.w3.org/2000/svg">
<path d="M36.8209 1.15552C36.7069 0.488209 36.1283 0 35.4504 0H4.19381C3.29302 0 2.56363 0.729769 2.56363 1.62835C2.56363 2.52858 3.29302 3.25753 4.19381 3.25753H11.8005C12.7013 3.25753 13.4307 3.98742 13.4307 4.88682C13.4307 5.78623 12.7013 6.516 11.8005 6.516H1.63018C0.730217 6.516 0 7.24577 0 8.14518C0 9.04459 0.730217 9.77341 1.63018 9.77341H15.4928C16.2883 9.77341 16.9336 10.4193 16.9336 11.2143C16.9336 12.0092 16.2883 12.6542 15.4928 12.6542H8.1278C7.22701 12.6542 6.49762 13.3841 6.49762 14.2835C6.49762 15.1828 7.22701 15.9126 8.1278 15.9126H13.5558C14.352 15.9126 14.9974 16.5576 14.9974 17.3525C14.9974 18.1474 14.352 18.7924 13.5558 18.7924H6.06226C5.16147 18.7924 4.43208 19.5222 4.43208 20.4216C4.43208 21.321 5.16147 22.0508 6.06226 22.0508H16.362L17.0116 25.723H20.7426C20.5231 26.2558 20.398 26.8374 20.398 27.4499C20.398 29.9631 22.4361 32 24.951 32C27.4648 32 29.503 29.9631 29.503 27.4499C29.503 26.8374 29.3778 26.2558 29.1584 25.723H41L36.8209 1.15552ZM26.9102 27.4497C26.9102 28.5317 26.0334 29.4079 24.9508 29.4079C23.8675 29.4079 22.9907 28.5317 22.9907 27.4497C22.9907 26.6969 23.42 26.051 24.0432 25.7228H25.8577C26.4808 26.051 26.9102 26.6968 26.9102 27.4497Z" fill="white"/>
<path d="M59.9528 22.8224L58.0986 13.5544L51.3278 3H39L42.8184 25.6904H47.3277C47.111 26.2259 46.9868 26.8106 46.9868 27.4262C46.9868 29.9525 49.0078 32 51.5003 32C53.9939 32 56.0147 29.9525 56.0147 27.4262C56.0147 26.8106 55.8906 26.2259 55.6732 25.6904H57.638C58.3468 25.6904 59.0181 25.3684 59.4668 24.8121C59.9147 24.2569 60.0939 23.5258 59.9528 22.8224ZM45.9781 7.22251H49.0665L53.0759 13.4709H47.0301L45.9781 7.22251ZM53.4439 27.4262C53.4439 28.5138 52.5746 29.3946 51.5003 29.3946C50.4278 29.3946 49.5576 28.5138 49.5576 27.4262C49.5576 26.6695 49.9843 26.0202 50.6013 25.6904H52.4004C53.0182 26.0202 53.4439 26.6694 53.4439 27.4262Z" fill="white"/>
</svg>
