<svg width="44" height="44" viewBox="0 0 44 44" fill="none" xmlns="http://www.w3.org/2000/svg">
<path fill-rule="evenodd" clip-rule="evenodd" d="M22.0001 29.3332C29.0877 29.3332 34.8334 23.5875 34.8334 16.4998C34.8334 9.41219 29.0877 3.6665 22.0001 3.6665C14.9124 3.6665 9.16675 9.41219 9.16675 16.4998C9.16675 23.5875 14.9124 29.3332 22.0001 29.3332ZM22.0001 10.9998C21.4792 10.9998 21.1309 11.6247 20.4342 12.8744L20.254 13.1978C20.0562 13.5529 19.9572 13.7305 19.8028 13.8476C19.6485 13.9648 19.4563 14.0083 19.0719 14.0953L18.7219 14.1745C17.369 14.4805 16.6926 14.6336 16.5317 15.1511C16.3707 15.6686 16.8319 16.2078 17.7541 17.2863L17.9927 17.5653C18.2548 17.8718 18.3858 18.025 18.4449 18.2146C18.5037 18.4041 18.4839 18.6085 18.4443 19.0176L18.4082 19.3897C18.2688 20.8287 18.1991 21.5481 18.6203 21.868C19.0418 22.1878 19.675 21.8963 20.9417 21.3131L21.2693 21.1622C21.6294 20.9965 21.8092 20.9136 22.0001 20.9136C22.1909 20.9136 22.3708 20.9965 22.7308 21.1622L23.0585 21.3131C24.3251 21.8963 24.9583 22.1878 25.3798 21.868C25.8011 21.5481 25.7313 20.8287 25.5919 19.3897L25.5558 19.0176C25.5162 18.6085 25.4964 18.4041 25.5553 18.2146C25.6143 18.025 25.7454 17.8718 26.0074 17.5653L26.2461 17.2863C27.1682 16.2078 27.6295 15.6686 27.4685 15.1511C27.3076 14.6336 26.6311 14.4805 25.2783 14.1745L24.9283 14.0953C24.5438 14.0083 24.3517 13.9648 24.1973 13.8476C24.043 13.7305 23.944 13.5529 23.7461 13.1978L23.5659 12.8744C22.8693 11.6247 22.5209 10.9998 22.0001 10.9998Z" fill="url(#paint0_linear_122148_9515)"/>
<path d="M8.24122 23.8232L5.48552 26.6766C4.4953 27.7018 4.00019 28.2144 3.82887 28.6486C3.43846 29.6378 3.77256 30.7353 4.62261 31.2556C4.99565 31.484 5.66851 31.5551 7.01421 31.6976C7.77396 31.7779 8.15392 31.818 8.47209 31.94C9.18445 32.2131 9.73858 32.7868 10.0023 33.5243C10.1201 33.8538 10.1589 34.2472 10.2365 35.0339C10.374 36.4272 10.4427 37.1239 10.6633 37.5102C11.1658 38.3904 12.2257 38.7363 13.1811 38.3321C13.6004 38.1546 14.0955 37.642 15.0858 36.6168L19.6362 31.9051C14.6907 31.1525 10.5092 28.0755 8.24122 23.8232Z" fill="url(#paint1_linear_122148_9515)"/>
<path d="M24.364 31.9051L28.9145 36.6168C29.9047 37.642 30.3997 38.1546 30.819 38.3321C31.7745 38.7363 32.8344 38.3904 33.3369 37.5102C33.5574 37.1239 33.6262 36.4272 33.7637 35.0339C33.8412 34.2472 33.8801 33.8538 33.9978 33.5243C34.2616 32.7868 34.8157 32.2131 35.5281 31.94C35.8464 31.818 36.2262 31.7779 36.986 31.6976C38.3316 31.5551 39.0045 31.484 39.3775 31.2556C40.2277 30.7353 40.5617 29.6378 40.1714 28.6486C40 28.2144 39.505 27.7018 38.5146 26.6766L35.7589 23.8232C33.4909 28.0755 29.3094 31.1525 24.364 31.9051Z" fill="url(#paint2_linear_122148_9515)"/>
<defs>
<linearGradient id="paint0_linear_122148_9515" x1="22.0001" y1="3.6665" x2="22.0001" y2="29.3332" gradientUnits="userSpaceOnUse">
<stop stop-color="#FAA75F"/>
<stop offset="0.509615" stop-color="#C6844B"/>
<stop offset="1" stop-color="#946338"/>
</linearGradient>
<linearGradient id="paint1_linear_122148_9515" x1="11.6515" y1="23.8232" x2="11.6515" y2="38.4999" gradientUnits="userSpaceOnUse">
<stop stop-color="#FAA75F"/>
<stop offset="0.509615" stop-color="#C6844B"/>
<stop offset="1" stop-color="#946338"/>
</linearGradient>
<linearGradient id="paint2_linear_122148_9515" x1="32.3487" y1="23.8232" x2="32.3487" y2="38.4999" gradientUnits="userSpaceOnUse">
<stop stop-color="#FAA75F"/>
<stop offset="0.509615" stop-color="#C6844B"/>
<stop offset="1" stop-color="#946338"/>
</linearGradient>
</defs>
</svg>
