<svg width="212" height="279" viewBox="0 0 212 279" fill="none" xmlns="http://www.w3.org/2000/svg">
<path d="M212 207.466C212 215.303 201.515 220.416 193.754 219.33C192.201 219.112 190.613 219 189 219C170.222 219 155 234.222 155 253C155 254.684 155.122 256.339 155.359 257.956C156.572 266.259 150.854 279 142.463 279H9C4.02944 279 0 274.971 0 270V9.00001C0 4.02945 4.02944 0 9 0H203C207.971 0 212 4.02944 212 9V207.466ZM212 278.705C212 278.866 211.867 279 211.706 279C211.435 279 211.305 278.66 211.508 278.48C211.698 278.313 212 278.452 212 278.705Z" fill="url(#paint0_linear_92_1938)" fill-opacity="0.54"/>
<defs>
<linearGradient id="paint0_linear_92_1938" x1="106" y1="181" x2="106" y2="241.5" gradientUnits="userSpaceOnUse">
<stop stop-opacity="0"/>
<stop offset="1"/>
</linearGradient>
</defs>
</svg>
